<svg xmlns="http://www.w3.org/2000/svg" version="1.1" xmlns:xlink="http://www.w3.org/1999/xlink" xmlns:svgjs="http://svgjs.dev/svgjs" width="1500" height="1500" viewBox="0 0 1500 1500"><rect width="1500" height="1500" fill="#ffffff"></rect><g transform="matrix(0.6666666666666666,0,0,0.6666666666666666,249.3939393939395,454.12287976503916)"><svg viewBox="0 0 396 234" data-background-color="#ffffff" preserveAspectRatio="xMidYMid meet" height="886" width="1500" xmlns="http://www.w3.org/2000/svg" xmlns:xlink="http://www.w3.org/1999/xlink"><g id="tight-bounds" transform="matrix(1,0,0,1,0.23999999999995225,0.21542799375993127)"><svg viewBox="0 0 395.52 233.54226299694187" height="233.54226299694187" width="395.52"><g><svg viewBox="0 0 395.52 233.54226299694187" height="233.54226299694187" width="395.52"><g><svg viewBox="0 0 395.52 233.54226299694187" height="233.54226299694187" width="395.52"><g id="textblocktransform"><svg viewBox="0 0 395.52 233.54226299694187" height="233.54226299694187" width="395.52" id="textblock"><g><svg viewBox="0 0 395.52 233.54226299694187" height="233.54226299694187" width="395.52"><g transform="matrix(1,0,0,1,0,0)"><svg width="395.52" viewBox="2 -35.65 61.312499999999986 36.199999999999996" height="233.54226299694187" data-palette-color="#16a34a"><path d="M32.45-3.6L32.45-3.6Q32.4-3 32.3-2.35 32.2-1.7 31.95-1.15L31.95-1.15Q31.7-0.55 31.3-0.25L31.3-0.25Q30.75 0.25 30 0.3L30 0.3Q29.3 0.55 28.65 0.45 28 0.35 27.45 0.1L27.45 0.1Q26.75-0.35 26.43-0.98 26.1-1.6 25.95-2.3 25.8-3 25.8-3.75 25.8-4.5 25.8-5.15L25.8-5.15 25.8-9.05 25.75-16.7Q25.75-17.5 25.75-17.95 25.75-18.4 25.75-18.78 25.75-19.15 25.73-19.63 25.7-20.1 25.7-21L25.7-21Q25.7-21.15 25.73-21.53 25.75-21.9 25.65-23.55L25.65-23.55Q23.7-20.3 22.43-18.32 21.15-16.35 20.28-15.28 19.4-14.2 18.75-13.83 18.1-13.45 17.4-13.4L17.4-13.4Q17-13.35 16.6-13.55 16.2-13.75 15.83-14.05 15.45-14.35 15.13-14.68 14.8-15 14.6-15.3L14.6-15.3Q13.4-16.8 11.9-18.9 10.4-21 8.8-24L8.8-24Q8.8-23.95 8.78-22.35 8.75-20.75 8.75-18.38 8.75-16 8.72-13.28 8.7-10.55 8.68-8.2 8.65-5.85 8.6-4.28 8.55-2.7 8.5-2.7L8.5-2.7Q8.5-1.85 8.1-1.13 7.7-0.4 7.03 0.05 6.35 0.5 5.45 0.55 4.55 0.6 3.5 0.05L3.5 0.05Q2.85-0.35 2.53-1.1 2.2-1.85 2.1-2.5L2.1-2.5Q2.05-3.2 2.02-3.85 2-4.5 2-5.2L2-5.2 2.05-9.1 2.1-16.8 2.1-23.5Q2.1-27.85 2.4-32.05L2.4-32.05Q2.4-32.6 2.53-33.08 2.65-33.55 2.85-34L2.85-34Q3.25-34.8 3.9-35.2L3.9-35.2Q4.65-35.65 5.5-35.65L5.5-35.65Q5.85-35.65 6.18-35.63 6.5-35.6 6.8-35.55L6.8-35.55Q7.8-35.35 8.53-34.38 9.25-33.4 9.9-32.7L9.9-32.7Q10.3-32.25 10.75-31.6 11.2-30.95 11.65-30.25 12.1-29.55 12.5-28.9 12.9-28.25 13.2-27.75L13.2-27.75Q14.5-25.65 15.53-23.9 16.55-22.15 17.45-20.9L17.45-20.9Q17.6-21.05 17.8-21.33 18-21.6 18.23-21.93 18.45-22.25 18.63-22.55 18.8-22.85 18.9-23.05L18.9-23.05Q19.4-23.85 19.9-24.63 20.4-25.4 20.98-26.28 21.55-27.15 22.18-28.2 22.8-29.25 23.65-30.6L23.65-30.6Q24-31.2 24.55-32.05 25.1-32.9 25.8-33.7 26.5-34.5 27.28-35.08 28.05-35.65 28.85-35.65L28.85-35.65Q29.25-35.65 29.55-35.63 29.85-35.6 30.15-35.55L30.15-35.55Q30.75-35.5 31.3-35L31.3-35Q31.7-34.6 31.9-34.15L31.9-34.15Q32.1-33.5 32.15-33.05L32.15-33.05Q32.2-32.7 32.23-32.4 32.25-32.1 32.25-31.8L32.25-31.8Q32.25-29 32.3-26.25 32.35-23.5 32.35-20.7L32.35-20.7Q32.35-17.3 32.38-13.7 32.4-10.1 32.4-6.7L32.4-6.7Q32.4-6 32.45-5.2 32.5-4.4 32.45-3.6ZM63.3-2.2L63.3-2.2Q63.35-1.7 63.2-1.25L63.2-1.25Q63.1-0.95 62.92-0.75 62.75-0.55 62.5-0.35L62.5-0.35Q62.05-0.05 61.4 0.2L61.4 0.2Q61 0.3 60.62 0.38 60.25 0.45 59.85 0.35L59.85 0.35Q59.05 0.3 58.45-0.25L58.45-0.25Q57.6-0.95 57.05-1.8L57.05-1.8Q56.8-2.2 56.5-2.7 56.2-3.2 55.95-3.75L55.95-3.75 50.4-14.3Q50-14.3 49.6-14.28 49.2-14.25 48.8-14.2L48.8-14.2Q47.75-14.1 46.82-14.15 45.9-14.2 44.9-14.15L44.9-14.15 43.95-14.15 43.95-5.1Q43.95-4.7 43.92-4.35 43.9-4 43.9-3.6L43.9-3.6Q43.9-3.35 43.87-2.95 43.85-2.55 43.8-2.2L43.8-2.2Q43.7-1.65 43.35-1.07 43-0.5 42.4-0.1L42.4-0.1Q41.35 0.55 39.85 0.25L39.85 0.25Q39.2 0.1 38.6-0.25L38.6-0.25Q38.4-0.4 38.25-0.63 38.1-0.85 38-1.1L38-1.1Q37.9-1.35 37.82-1.63 37.75-1.9 37.65-2.15L37.65-2.15Q37.5-2.65 37.5-3.1L37.5-3.1 37.5-31.5Q37.5-31.8 37.52-32.13 37.55-32.45 37.6-32.7L37.6-32.7Q37.65-33.25 37.95-33.8L37.95-33.8Q38.1-34.4 38.45-34.65L38.45-34.65Q38.75-34.95 39.37-35.18 40-35.4 41.2-35.35L41.2-35.35Q43.45-35.3 45.65-35.3 47.85-35.3 50.05-35.2L50.05-35.2Q51.5-35.1 53.12-34.88 54.75-34.65 56.15-34.1L56.15-34.1Q57.05-33.75 57.8-33.4L57.8-33.4Q58.75-32.85 59.3-32.35L59.3-32.35Q61.05-30.75 61.95-28.5 62.85-26.25 62.85-23.95L62.85-23.95Q62.85-21.25 61.57-19 60.3-16.75 57.5-15.65L57.5-15.65Q57.4-15.55 57.22-15.53 57.05-15.5 56.95-15.45L56.95-15.45 61.55-6.2 62-5.4Q62.1-5.2 62.25-4.95 62.4-4.7 62.5-4.45L62.5-4.45Q62.65-4.2 62.77-3.9 62.9-3.6 63.05-3.35L63.05-3.35Q63.2-2.65 63.3-2.2ZM43.95-20L50.8-20Q51.7-20 52.52-20.33 53.35-20.65 54.02-21.2 54.7-21.75 55.15-22.48 55.6-23.2 55.65-24.05L55.65-24.05Q55.85-26.55 54.35-27.78 52.85-29 50.4-29.1L50.4-29.1Q48.95-29.2 47.22-29.2 45.5-29.2 43.95-29.2L43.95-29.2Q44-27.15 43.97-25.03 43.95-22.9 43.95-20L43.95-20Z" opacity="1" transform="matrix(1,0,0,1,0,0)" fill="#16a34a" class="wordmark-text-0" data-fill-palette-color="primary" id="text-0"></path></svg></g></svg></g></svg></g></svg></g></svg></g><defs></defs></svg><rect width="395.52" height="233.54226299694187" fill="none" stroke="none" visibility="hidden"></rect></g></svg></g></svg>